<?xml version="1.0" encoding="iso-8859-1"?>
<!-- Generator: Adobe Illustrator 16.0.0, SVG Export Plug-In . SVG Version: 6.00 Build 0)  -->
<!DOCTYPE svg PUBLIC "-//W3C//DTD SVG 1.1//EN" "http://www.w3.org/Graphics/SVG/1.1/DTD/svg11.dtd">
<svg version="1.1" id="Capa_1" xmlns="http://www.w3.org/2000/svg" xmlns:xlink="http://www.w3.org/1999/xlink" x="0px" y="0px"
	 width="71.242px" height="71.242px" viewBox="0 0 71.242 71.242" style="enable-background:new 0 0 71.242 71.242;"
	 xml:space="preserve">
<g>
	<path d="M71.242,44.791h-2.744V30.803h-9.703C55.699,19.517,45.73,11.71,34.248,11.71c-11.483,0-21.453,7.806-24.545,19.093H0
		v22.591h8.39c0.561,3.472,3.555,6.137,7.183,6.137c3.63,0,6.625-2.665,7.186-6.137h22.984c0.562,3.472,3.557,6.137,7.184,6.137
		c3.626,0,6.621-2.665,7.181-6.137h8.392v-3.933h2.744V44.791L71.242,44.791z M15.573,57.192c-2.737,0-4.966-2.224-4.966-4.963
		c0-2.742,2.229-4.969,4.966-4.969c2.74,0,4.968,2.227,4.968,4.969C20.541,54.969,18.312,57.192,15.573,57.192z M52.926,57.192
		c-2.737,0-4.967-2.224-4.967-4.963c0-2.742,2.229-4.969,4.967-4.969s4.966,2.227,4.966,4.969
		C57.892,54.969,55.663,57.192,52.926,57.192z M66.162,51.057h-6.056c-0.562-3.465-3.557-6.132-7.181-6.132
		c-3.627,0-6.62,2.667-7.184,6.132H22.758c-0.563-3.465-3.558-6.132-7.186-6.132c-3.625,0-6.62,2.667-7.183,6.132H2.336v-17.92
		h9.196l0.217-0.895c2.554-10.72,11.806-18.198,22.504-18.198c10.699,0,19.953,7.479,22.505,18.198l0.214,0.895h9.2v17.92H66.162z
		 M52.214,33.321l0.077,0.328H35.414V18.763C43.445,19.278,50.261,25.113,52.214,33.321z M33.08,18.758v14.885H16.201l0.078-0.324
		C18.241,25.113,25.054,19.278,33.08,18.758z"/>
</g>
<g>
</g>
<g>
</g>
<g>
</g>
<g>
</g>
<g>
</g>
<g>
</g>
<g>
</g>
<g>
</g>
<g>
</g>
<g>
</g>
<g>
</g>
<g>
</g>
<g>
</g>
<g>
</g>
<g>
</g>
</svg>
